<?xml version="1.0" encoding="UTF-8"?>
<svg version="1.1" xmlns="http://www.w3.org/2000/svg" width="48" height="48">
<path d="M0 0 C3.96 0 7.92 0 12 0 C12 0.99 12 1.98 12 3 C13.39025391 2.98259766 13.39025391 2.98259766 14.80859375 2.96484375 C16.00613281 2.95582031 17.20367187 2.94679688 18.4375 2.9375 C19.63246094 2.92589844 20.82742187 2.91429687 22.05859375 2.90234375 C25 3 25 3 26 4 C26.08790975 6.29151417 26.10694038 8.58572524 26.09765625 10.87890625 C26.09515869 12.13517822 26.09266113 13.3914502 26.09008789 14.68579102 C26.08098389 16.29510498 26.07187988 17.90441895 26.0625 19.5625 C26.041875 24.656875 26.02125 29.75125 26 35 C12.8 35 -0.4 35 -14 35 C-14.020625 29.905625 -14.04125 24.81125 -14.0625 19.5625 C-14.071604 17.95318604 -14.08070801 16.34387207 -14.09008789 14.68579102 C-14.09258545 13.42951904 -14.09508301 12.17324707 -14.09765625 10.87890625 C-14.10289307 9.5854126 -14.10812988 8.29191895 -14.11352539 6.95922852 C-14 4 -14 4 -13 3 C-10.81360547 2.92741054 -8.62499611 2.91626217 -6.4375 2.9375 C-4.64119141 2.95103516 -4.64119141 2.95103516 -2.80859375 2.96484375 C-1.88175781 2.97644531 -0.95492188 2.98804688 0 3 C0 2.01 0 1.02 0 0 Z " fill="#FE8F00" transform="translate(18,6)"/>
<path d="M0 0 C1.918125 0.144375 3.83625 0.28875 5.8125 0.4375 C7.43091797 0.55931641 7.43091797 0.55931641 9.08203125 0.68359375 C12 1 12 1 15 2 C14.34 4.64 13.68 7.28 13 10 C17.62 10 22.24 10 27 10 C26.34 7.36 25.68 4.72 25 2 C26.56116819 1.66048381 28.12401338 1.32867456 29.6875 1 C30.55761719 0.814375 31.42773438 0.62875 32.32421875 0.4375 C35 0 35 0 40 0 C40 5.28 40 10.56 40 16 C26.8 16 13.6 16 0 16 C0 10.72 0 5.44 0 0 Z " fill="#D67C05" transform="translate(4,25)"/>
<path d="M0 0 C2.375 1.6875 2.375 1.6875 4 4 C4 5.65 4 7.3 4 9 C-0.62 9 -5.24 9 -10 9 C-10 4 -10 4 -8.375 1.6875 C-5.2935202 -0.50197249 -3.70758991 -0.61793165 0 0 Z " fill="#FEEED7" transform="translate(27,26)"/>
<path d="M0 0 C2.625 0.375 2.625 0.375 5 1 C5.625 3.375 5.625 3.375 6 6 C5.34 6.66 4.68 7.32 4 8 C1.375 7.625 1.375 7.625 -1 7 C-1.625 4.625 -1.625 4.625 -2 2 C-1.34 1.34 -0.68 0.68 0 0 Z " fill="#FFECD1" transform="translate(22,16)"/>
<path d="M0 0 C3.96 0 7.92 0 12 0 C12 0.99 12 1.98 12 3 C8.04 3 4.08 3 0 3 C0 2.01 0 1.02 0 0 Z " fill="#D57B05" transform="translate(18,6)"/>
</svg>
